{
	"asset":{
		"generator":"Khronos glTF Blender I/O v3.5.30",
		"version":"2.0"
	},
	"extensionsUsed":[
		"KHR_materials_clearcoat"
	],
	"scene":0,
	"scenes":[
		{
			"name":"Scene",
			"nodes":[
				2
			]
		}
	],
	"nodes":[
		{
			"mesh":0,
			"name":"mesh_0"
		},
		{
			"mesh":1,
			"name":"mesh_1"
		},
		{
			"children":[
				0,
				1
			],
			"name":"root"
		}
	],
	"materials":[
		{
			"doubleSided":true,
			"extensions":{
				"KHR_materials_clearcoat":{
					"clearcoatFactor":0.03999999910593033,
					"clearcoatRoughnessFactor":1,
					"clearcoatRoughnessTexture":{
						"index":0
					}
				}
			},
			"name":"material_0",
			"normalTexture":{
				"index":1
			},
			"pbrMetallicRoughness":{
				"baseColorFactor":[
					1,
					0.32314324378967285,
					0.32314324378967285,
					1
				],
				"roughnessFactor":0.05999999865889549
			}
		},
		{
			"doubleSided":true,
			"extensions":{
				"KHR_materials_clearcoat":{
					"clearcoatFactor":1,
					"clearcoatRoughnessFactor":0.03999999910593033
				}
			},
			"name":"material_1",
			"normalTexture":{
				"index":2
			},
			"pbrMetallicRoughness":{
				"baseColorFactor":[
					0.8468732237815857,
					0.8069441914558411,
					0.708368718624115,
					1
				],
				"metallicFactor":0,
				"roughnessFactor":0.6000000238418579
			}
		}
	],
	"meshes":[
		{
			"name":"mesh_0",
			"primitives":[
				{
					"attributes":{
						"POSITION":0,
						"TEXCOORD_0":1,
						"NORMAL":2
					},
					"indices":3,
					"material":0
				}
			]
		},
		{
			"name":"mesh_1",
			"primitives":[
				{
					"attributes":{
						"POSITION":4,
						"TEXCOORD_0":5,
						"NORMAL":6
					},
					"indices":7,
					"material":1
				}
			]
		}
	],
	"textures":[
		{
			"sampler":0,
			"source":0
		},
		{
			"sampler":0,
			"source":1
		},
		{
			"sampler":0,
			"source":2
		}
	],
	"images":[
		{
			"bufferView":4,
			"mimeType":"image/png",
			"name":"ea386d06-95f9-49bd-a9d0-4964a9f66f23"
		},
		{
			"bufferView":5,
			"mimeType":"image/png",
			"name":"4e8b8dbf-9e8b-40af-b16a-dfa565fe3aa9"
		},
		{
			"bufferView":10,
			"mimeType":"image/png",
			"name":"97fa09fb-161f-43a6-b65e-556b9e578ed5"
		}
	],
	"accessors":[
		{
			"bufferView":0,
			"componentType":5126,
			"count":1444,
			"max":[
				0.10711698979139328,
				0.024826128035783768,
				-0.008076425641775131
			],
			"min":[
				-0.06334882229566574,
				-0.02484871819615364,
				-0.012753574177622795
			],
			"type":"VEC3"
		},
		{
			"bufferView":1,
			"componentType":5126,
			"count":1444,
			"type":"VEC2"
		},
		{
			"bufferView":2,
			"componentType":5126,
			"count":1444,
			"type":"VEC3"
		},
		{
			"bufferView":3,
			"componentType":5123,
			"count":5700,
			"type":"SCALAR"
		},
		{
			"bufferView":6,
			"componentType":5126,
			"count":4211,
			"max":[
				-0.03954514116048813,
				0.038600631058216095,
				0.006539309397339821
			],
			"min":[
				-0.07464286684989929,
				0.0035029035061597824,
				-0.02853930927813053
			],
			"type":"VEC3"
		},
		{
			"bufferView":7,
			"componentType":5126,
			"count":4211,
			"type":"VEC2"
		},
		{
			"bufferView":8,
			"componentType":5126,
			"count":4211,
			"type":"VEC3"
		},
		{
			"bufferView":9,
			"componentType":5123,
			"count":23160,
			"type":"SCALAR"
		}
	],
	"bufferViews":[
		{
			"buffer":0,
			"byteLength":17328,
			"byteOffset":0,
			"target":34962
		},
		{
			"buffer":0,
			"byteLength":11552,
			"byteOffset":17328,
			"target":34962
		},
		{
			"buffer":0,
			"byteLength":17328,
			"byteOffset":28880,
			"target":34962
		},
		{
			"buffer":0,
			"byteLength":11400,
			"byteOffset":46208,
			"target":34963
		},
		{
			"buffer":0,
			"byteLength":46631,
			"byteOffset":57608
		},
		{
			"buffer":0,
			"byteLength":117213,
			"byteOffset":104240
		},
		{
			"buffer":0,
			"byteLength":50532,
			"byteOffset":221456,
			"target":34962
		},
		{
			"buffer":0,
			"byteLength":33688,
			"byteOffset":271988,
			"target":34962
		},
		{
			"buffer":0,
			"byteLength":50532,
			"byteOffset":305676,
			"target":34962
		},
		{
			"buffer":0,
			"byteLength":46320,
			"byteOffset":356208,
			"target":34963
		},
		{
			"buffer":0,
			"byteLength":21066,
			"byteOffset":402528
		}
	],
	"samplers":[
		{
			"magFilter":9729,
			"minFilter":9987
		}
	],
	"buffers":[
		{
			"byteLength":423596,
			"uri":"data:application/octet-stream;base64,"
		}
	]
}
