{
  "asset": {
    "version": "2.0",
    "generator": "3dpea GLTFExporter"
  },
  "scenes": [
    {
      "name": "AuxScene",
      "nodes": [
        7
      ]
    }
  ],
  "scene": 0,
  "nodes": [
    {
      "name": "mesh_0",
      "extras": {
        "name": "mesh_0"
      },
      "mesh": 0
    },
    {
      "name": "mesh_4",
      "extras": {
        "name": "mesh_4"
      },
      "mesh": 1
    },
    {
      "name": "mesh_1",
      "extras": {
        "name": "mesh_1"
      },
      "mesh": 2
    },
    {
      "name": "mesh_2",
      "extras": {
        "name": "mesh_2"
      },
      "mesh": 3
    },
    {
      "name": "mesh_3",
      "extras": {
        "name": "mesh_3"
      },
      "mesh": 4
    },
    {
      "name": "mesh_5",
      "extras": {
        "name": "mesh_5"
      },
      "mesh": 5
    },
    {
      "name": "root",
      "extras": {
        "name": "root"
      },
      "children": [
        0,
        1,
        2,
        3,
        4,
        5
      ]
    },
    {
      "name": "demo dispaly 12.glb",
      "children": [
        6
      ]
    }
  ],
  "bufferViews": [
    {
      "buffer": 0,
      "byteOffset": 0,
      "byteLength": 42024,
      "target": 34962,
      "byteStride": 12
    },
    {
      "buffer": 0,
      "byteOffset": 42024,
      "byteLength": 42024,
      "target": 34962,
      "byteStride": 12
    },
    {
      "buffer": 0,
      "byteOffset": 84048,
      "byteLength": 20640,
      "target": 34963
    },
    {
      "buffer": 0,
      "byteOffset": 104688,
      "byteLength": 18036,
      "target": 34962,
      "byteStride": 12
    },
    {
      "buffer": 0,
      "byteOffset": 122724,
      "byteLength": 18036,
      "target": 34962,
      "byteStride": 12
    },
    {
      "buffer": 0,
      "byteOffset": 140760,
      "byteLength": 10292,
      "target": 34963
    },
    {
      "buffer": 0,
      "byteOffset": 151052,
      "byteLength": 34920,
      "target": 34962,
      "byteStride": 12
    },
    {
      "buffer": 0,
      "byteOffset": 185972,
      "byteLength": 34920,
      "target": 34962,
      "byteStride": 12
    },
    {
      "buffer": 0,
      "byteOffset": 220892,
      "byteLength": 23280,
      "target": 34962,
      "byteStride": 8
    },
    {
      "buffer": 0,
      "byteOffset": 244172,
      "byteLength": 25620,
      "target": 34963
    },
    {
      "buffer": 0,
      "byteOffset": 269792,
      "byteLength": 64908,
      "target": 34962,
      "byteStride": 12
    },
    {
      "buffer": 0,
      "byteOffset": 334700,
      "byteLength": 64908,
      "target": 34962,
      "byteStride": 12
    },
    {
      "buffer": 0,
      "byteOffset": 399608,
      "byteLength": 43272,
      "target": 34962,
      "byteStride": 8
    },
    {
      "buffer": 0,
      "byteOffset": 442880,
      "byteLength": 53640,
      "target": 34963
    },
    {
      "buffer": 0,
      "byteOffset": 496520,
      "byteLength": 110100,
      "target": 34962,
      "byteStride": 12
    },
    {
      "buffer": 0,
      "byteOffset": 606620,
      "byteLength": 110100,
      "target": 34962,
      "byteStride": 12
    },
    {
      "buffer": 0,
      "byteOffset": 716720,
      "byteLength": 73400,
      "target": 34962,
      "byteStride": 8
    },
    {
      "buffer": 0,
      "byteOffset": 790120,
      "byteLength": 81948,
      "target": 34963
    },
    {
      "buffer": 0,
      "byteOffset": 872068,
      "byteLength": 13056,
      "target": 34962,
      "byteStride": 12
    },
    {
      "buffer": 0,
      "byteOffset": 885124,
      "byteLength": 13056,
      "target": 34962,
      "byteStride": 12
    },
    {
      "buffer": 0,
      "byteOffset": 898180,
      "byteLength": 8704,
      "target": 34962,
      "byteStride": 8
    },
    {
      "buffer": 0,
      "byteOffset": 906884,
      "byteLength": 10176,
      "target": 34963
    }
  ],
  "buffers": [
    {
      "byteLength": 917060,
      "uri": "data:application/octet-stream;base64,"
    }
  ],
  "accessors": [
    {
      "bufferView": 0,
      "componentType": 5126,
      "count": 3502,
      "max": [
        0.06249954551458359,
        0.013857901096343994,
        -0.029812196269631386
      ],
      "min": [
        -0.06314809620380402,
        -0.00565729197114706,
        -0.06506288796663284
      ],
      "type": "VEC3"
    },
    {
      "bufferView": 1,
      "componentType": 5126,
      "count": 3502,
      "max": [
        0.8776624202728271,
        1,
        1
      ],
      "min": [
        -0.8933839201927185,
        -1,
        -1
      ],
      "type": "VEC3"
    },
    {
      "bufferView": 2,
      "componentType": 5123,
      "count": 10320,
      "max": [
        3501
      ],
      "min": [
        0
      ],
      "type": "SCALAR"
    },
    {
      "bufferView": 3,
      "componentType": 5126,
      "count": 1503,
      "max": [
        0.06511465460062027,
        0.04607921838760376,
        0.023532457649707794
      ],
      "min": [
        -0.06528352200984955,
        0.00652190949767828,
        -0.029841294512152672
      ],
      "type": "VEC3"
    },
    {
      "bufferView": 4,
      "componentType": 5126,
      "count": 1503,
      "max": [
        0.9628002047538757,
        1,
        0.15210308134555817
      ],
      "min": [
        -0.967038631439209,
        0.03110039420425892,
        -0.43730613589286804
      ],
      "type": "VEC3"
    },
    {
      "bufferView": 5,
      "componentType": 5123,
      "count": 5145,
      "max": [
        1502
      ],
      "min": [
        0
      ],
      "type": "SCALAR"
    },
    {
      "bufferView": 6,
      "componentType": 5126,
      "count": 2910,
      "max": [
        0.052340827882289886,
        -0.00033736415207386017,
        0.06873553991317749
      ],
      "min": [
        -0.05156625807285309,
        -0.04347708076238632,
        0.025513045489788055
      ],
      "type": "VEC3"
    },
    {
      "bufferView": 7,
      "componentType": 5126,
      "count": 2910,
      "max": [
        0.925429105758667,
        0.5421822667121887,
        0.9999843835830688
      ],
      "min": [
        -0.9268115758895874,
        -1,
        -0.00010000238398788497
      ],
      "type": "VEC3"
    },
    {
      "bufferView": 8,
      "componentType": 5126,
      "count": 2910,
      "max": [
        1,
        1
      ],
      "min": [
        0,
        0
      ],
      "type": "VEC2"
    },
    {
      "bufferView": 9,
      "componentType": 5123,
      "count": 12810,
      "max": [
        2909
      ],
      "min": [
        0
      ],
      "type": "SCALAR"
    },
    {
      "bufferView": 10,
      "componentType": 5126,
      "count": 5409,
      "max": [
        0.06880613416433334,
        0.04607921838760376,
        0.053063664585351944
      ],
      "min": [
        -0.06858328729867935,
        -0.04377403110265732,
        -0.06505431234836578
      ],
      "type": "VEC3"
    },
    {
      "bufferView": 11,
      "componentType": 5126,
      "count": 5409,
      "max": [
        0.9993770122528076,
        1,
        0.9992571473121643
      ],
      "min": [
        -0.999427318572998,
        -0.9998496174812317,
        -0.9992687702178955
      ],
      "type": "VEC3"
    },
    {
      "bufferView": 12,
      "componentType": 5126,
      "count": 5409,
      "max": [
        1,
        1
      ],
      "min": [
        0,
        0
      ],
      "type": "VEC2"
    },
    {
      "bufferView": 13,
      "componentType": 5123,
      "count": 26820,
      "max": [
        5408
      ],
      "min": [
        0
      ],
      "type": "SCALAR"
    },
    {
      "bufferView": 14,
      "componentType": 5126,
      "count": 9175,
      "max": [
        0.06744132936000824,
        0.041178714483976364,
        0.05739624798297882
      ],
      "min": [
        -0.0673287957906723,
        -0.03995611146092415,
        -0.06506296992301941
      ],
      "type": "VEC3"
    },
    {
      "bufferView": 15,
      "componentType": 5126,
      "count": 9175,
      "max": [
        0.9999966621398926,
        1,
        1
      ],
      "min": [
        -0.9999204277992249,
        -1,
        -1
      ],
      "type": "VEC3"
    },
    {
      "bufferView": 16,
      "componentType": 5126,
      "count": 9175,
      "max": [
        1,
        1
      ],
      "min": [
        0,
        0
      ],
      "type": "VEC2"
    },
    {
      "bufferView": 17,
      "componentType": 5123,
      "count": 40974,
      "max": [
        9174
      ],
      "min": [
        0
      ],
      "type": "SCALAR"
    },
    {
      "bufferView": 18,
      "componentType": 5126,
      "count": 1088,
      "max": [
        0.06880795955657959,
        0.0050121876411139965,
        0.05609503388404846
      ],
      "min": [
        -0.06858746707439423,
        -0.017048591747879982,
        -0.0650584027171135
      ],
      "type": "VEC3"
    },
    {
      "bufferView": 19,
      "componentType": 5126,
      "count": 1088,
      "max": [
        0.9999525547027588,
        0.6768055558204651,
        0.9400815367698669
      ],
      "min": [
        -0.9999793767929077,
        -0.16920320689678192,
        -1
      ],
      "type": "VEC3"
    },
    {
      "bufferView": 20,
      "componentType": 5126,
      "count": 1088,
      "max": [
        1,
        1
      ],
      "min": [
        0,
        0
      ],
      "type": "VEC2"
    },
    {
      "bufferView": 21,
      "componentType": 5123,
      "count": 5088,
      "max": [
        1087
      ],
      "min": [
        0
      ],
      "type": "SCALAR"
    }
  ],
  "materials": [
    {
      "pbrMetallicRoughness": {
        "baseColorFactor": [
          0.450785782828426,
          0,
          0,
          1
        ],
        "metallicFactor": 0,
        "roughnessFactor": 0.004999999888241291
      },
      "doubleSided": true,
      "name": "material_0",
      "extensions": {
        "KHR_materials_clearcoat": {
          "clearcoatFactor": 1,
          "clearcoatRoughnessFactor": 0.00800000037997961
        }
      }
    },
    {
      "pbrMetallicRoughness": {
        "baseColorFactor": [
          0.4232676923274994,
          0.15895923972129822,
          0.042310986667871475,
          0.75
        ],
        "metallicFactor": 0,
        "roughnessFactor": 0.10000000149011612
      },
      "alphaMode": "BLEND",
      "doubleSided": true,
      "name": "material_4",
      "extensions": {
        "KHR_materials_clearcoat": {
          "clearcoatFactor": 1,
          "clearcoatRoughnessFactor": 0
        }
      }
    },
    {
      "pbrMetallicRoughness": {
        "baseColorFactor": [
          0.04666508734226227,
          0.042310986667871475,
          0.01520836353302002,
          0.75
        ],
        "metallicFactor": 0,
        "roughnessFactor": 0.5609999895095825
      },
      "normalTexture": {
        "index": 0
      },
      "alphaMode": "BLEND",
      "doubleSided": true,
      "name": "material_1",
      "extensions": {
        "KHR_materials_clearcoat": {
          "clearcoatFactor": 0.6650000214576721,
          "clearcoatRoughnessFactor": 0.10599999874830246
        }
      }
    },
    {
      "pbrMetallicRoughness": {
        "baseColorFactor": [
          1,
          0.4341493248939514,
          0.30946585536003113,
          1
        ],
        "metallicFactor": 1,
        "roughnessFactor": 0.18000000715255737
      },
      "normalTexture": {
        "index": 1
      },
      "doubleSided": true,
      "name": "material_2"
    },
    {
      "pbrMetallicRoughness": {
        "baseColorFactor": [
          0.02955683507025242,
          0.02732061967253685,
          0.019382169470191002,
          1
        ],
        "metallicFactor": 1,
        "roughnessFactor": 0.05999999865889549
      },
      "normalTexture": {
        "index": 2
      },
      "doubleSided": true,
      "name": "material_3",
      "extensions": {
        "KHR_materials_clearcoat": {
          "clearcoatFactor": 0.03999999910593033,
          "clearcoatRoughnessFactor": 1,
          "clearcoatRoughnessTexture": {
            "index": 3
          }
        }
      }
    },
    {
      "pbrMetallicRoughness": {
        "baseColorFactor": [
          1,
          0.4341493248939514,
          0.30946585536003113,
          1
        ],
        "metallicFactor": 1,
        "roughnessFactor": 0.18000000715255737
      },
      "normalTexture": {
        "index": 4
      },
      "doubleSided": true,
      "name": "material_5"
    }
  ],
  "meshes": [
    {
      "primitives": [
        {
          "mode": 4,
          "attributes": {
            "POSITION": 0,
            "NORMAL": 1
          },
          "indices": 2,
          "material": 0
        }
      ]
    },
    {
      "primitives": [
        {
          "mode": 4,
          "attributes": {
            "POSITION": 3,
            "NORMAL": 4
          },
          "indices": 5,
          "material": 1
        }
      ]
    },
    {
      "primitives": [
        {
          "mode": 4,
          "attributes": {
            "POSITION": 6,
            "NORMAL": 7,
            "TEXCOORD_0": 8
          },
          "indices": 9,
          "material": 2
        }
      ]
    },
    {
      "primitives": [
        {
          "mode": 4,
          "attributes": {
            "POSITION": 10,
            "NORMAL": 11,
            "TEXCOORD_0": 12
          },
          "indices": 13,
          "material": 3
        }
      ]
    },
    {
      "primitives": [
        {
          "mode": 4,
          "attributes": {
            "POSITION": 14,
            "NORMAL": 15,
            "TEXCOORD_0": 16
          },
          "indices": 17,
          "material": 4
        }
      ]
    },
    {
      "primitives": [
        {
          "mode": 4,
          "attributes": {
            "POSITION": 18,
            "NORMAL": 19,
            "TEXCOORD_0": 20
          },
          "indices": 21,
          "material": 5
        }
      ]
    }
  ],
  "textures": [
    {
      "sampler": 0,
      "source": 0
    },
    {
      "sampler": 1,
      "source": 1
    },
    {
      "sampler": 2,
      "source": 2
    },
    {
      "sampler": 3,
      "source": 3
    },
    {
      "sampler": 4,
      "source": 4
    }
  ],
  "samplers": [
    {
      "magFilter": 9729,
      "minFilter": 9987,
      "wrapS": 10497,
      "wrapT": 10497
    },
    {
      "magFilter": 9729,
      "minFilter": 9987,
      "wrapS": 10497,
      "wrapT": 10497
    },
    {
      "magFilter": 9729,
      "minFilter": 9987,
      "wrapS": 10497,
      "wrapT": 10497
    },
    {
      "magFilter": 9729,
      "minFilter": 9987,
      "wrapS": 10497,
      "wrapT": 10497
    },
    {
      "magFilter": 9729,
      "minFilter": 9987,
      "wrapS": 10497,
      "wrapT": 10497
    }
  ],
  "images": [
    {
      "mimeType": "image/png",
      "uri": "data:image/png;base64,"
    },
    {
      "mimeType": "image/png",
      "uri": "data:image/png;base64,"
    },
    {
      "mimeType": "image/png",
      "uri": "data:image/png;base64,"
    },
    {
      "mimeType": "image/png",
      "uri": "data:image/png;base64,"
    },
    {
      "mimeType": "image/png",
      "uri": "data:image/png;base64,"
    }
  ],
  "extensionsUsed": [
    "KHR_materials_clearcoat"
  ]
}