{
	"asset":{
		"generator":"Khronos glTF Blender I/O v3.5.30",
		"version":"2.0"
	},
	"extensionsUsed":[
		"KHR_materials_clearcoat"
	],
	"scene":0,
	"scenes":[
		{
			"name":"Scene",
			"nodes":[
				7
			]
		}
	],
	"nodes":[
		{
			"mesh":0,
			"name":"mesh_0"
		},
		{
			"mesh":1,
			"name":"mesh_1"
		},
		{
			"mesh":2,
			"name":"mesh_2"
		},
		{
			"mesh":3,
			"name":"mesh_3"
		},
		{
			"mesh":4,
			"name":"mesh_4"
		},
		{
			"mesh":5,
			"name":"mesh_5"
		},
		{
			"mesh":6,
			"name":"mesh_6"
		},
		{
			"children":[
				0,
				1,
				2,
				3,
				4,
				5,
				6
			],
			"name":"root"
		}
	],
	"materials":[
		{
			"doubleSided":true,
			"extensions":{
				"KHR_materials_clearcoat":{
					"clearcoatFactor":0.3499999940395355,
					"clearcoatRoughnessFactor":0.05000000074505806
				}
			},
			"name":"material_0",
			"normalTexture":{
				"index":0
			},
			"pbrMetallicRoughness":{
				"baseColorTexture":{
					"index":1
				},
				"metallicFactor":0,
				"metallicRoughnessTexture":{
					"index":2
				}
			}
		},
		{
			"doubleSided":true,
			"name":"material_1",
			"pbrMetallicRoughness":{
				"baseColorFactor":[
					0.20863686501979828,
					0.20863686501979828,
					0.23839759826660156,
					1
				],
				"metallicFactor":0,
				"roughnessFactor":0.5
			}
		},
		{
			"doubleSided":true,
			"extensions":{
				"KHR_materials_clearcoat":{
					"clearcoatFactor":0.4000000059604645,
					"clearcoatRoughnessFactor":0.05000000074505806
				}
			},
			"name":"material_2",
			"pbrMetallicRoughness":{
				"baseColorTexture":{
					"index":3
				},
				"metallicFactor":0,
				"metallicRoughnessTexture":{
					"index":4
				}
			}
		},
		{
			"doubleSided":true,
			"extensions":{
				"KHR_materials_clearcoat":{
					"clearcoatFactor":0.3499999940395355,
					"clearcoatRoughnessFactor":0.05000000074505806
				}
			},
			"name":"material_3",
			"normalTexture":{
				"index":5
			},
			"pbrMetallicRoughness":{
				"baseColorTexture":{
					"index":6
				},
				"metallicFactor":0.08799999952316284,
				"metallicRoughnessTexture":{
					"index":7
				}
			}
		},
		{
			"doubleSided":true,
			"extensions":{
				"KHR_materials_clearcoat":{
					"clearcoatFactor":1,
					"clearcoatRoughnessFactor":1,
					"clearcoatRoughnessTexture":{
						"index":8
					}
				}
			},
			"name":"material_4",
			"pbrMetallicRoughness":{
				"baseColorFactor":[
					1,
					0,
					0,
					1
				],
				"metallicFactor":0.1599999964237213,
				"roughnessFactor":0
			}
		},
		{
			"doubleSided":true,
			"name":"material_5",
			"normalTexture":{
				"index":9
			},
			"pbrMetallicRoughness":{
				"baseColorFactor":[
					0.7991027235984802,
					0.5394740700721741,
					0.16513054072856903,
					1
				],
				"roughnessFactor":0.02500000037252903
			}
		},
		{
			"doubleSided":true,
			"name":"material_6",
			"normalTexture":{
				"index":10
			},
			"pbrMetallicRoughness":{
				"baseColorFactor":[
					0.7991027235984802,
					0.5394740700721741,
					0.16513054072856903,
					1
				],
				"roughnessFactor":0.02500000037252903
			}
		}
	],
	"meshes":[
		{
			"name":"mesh_0",
			"primitives":[
				{
					"attributes":{
						"POSITION":0,
						"TEXCOORD_0":1,
						"NORMAL":2
					},
					"indices":3,
					"material":0
				}
			]
		},
		{
			"name":"mesh_1",
			"primitives":[
				{
					"attributes":{
						"POSITION":4,
						"NORMAL":5
					},
					"indices":6,
					"material":1
				}
			]
		},
		{
			"name":"mesh_2",
			"primitives":[
				{
					"attributes":{
						"POSITION":7,
						"TEXCOORD_0":8,
						"NORMAL":9
					},
					"indices":10,
					"material":2
				}
			]
		},
		{
			"name":"mesh_3",
			"primitives":[
				{
					"attributes":{
						"POSITION":11,
						"TEXCOORD_0":12,
						"NORMAL":13
					},
					"indices":14,
					"material":3
				}
			]
		},
		{
			"name":"mesh_4",
			"primitives":[
				{
					"attributes":{
						"POSITION":15,
						"TEXCOORD_0":16,
						"NORMAL":17
					},
					"indices":18,
					"material":4
				}
			]
		},
		{
			"name":"mesh_5",
			"primitives":[
				{
					"attributes":{
						"POSITION":19,
						"TEXCOORD_0":20,
						"NORMAL":21
					},
					"indices":22,
					"material":5
				}
			]
		},
		{
			"name":"mesh_6",
			"primitives":[
				{
					"attributes":{
						"POSITION":23,
						"TEXCOORD_0":24,
						"NORMAL":25
					},
					"indices":26,
					"material":6
				}
			]
		}
	],
	"textures":[
		{
			"sampler":0,
			"source":0
		},
		{
			"sampler":0,
			"source":1
		},
		{
			"sampler":0,
			"source":2
		},
		{
			"sampler":0,
			"source":3
		},
		{
			"sampler":0,
			"source":4
		},
		{
			"sampler":0,
			"source":5
		},
		{
			"sampler":0,
			"source":6
		},
		{
			"sampler":0,
			"source":7
		},
		{
			"sampler":0,
			"source":8
		},
		{
			"sampler":0,
			"source":9
		},
		{
			"sampler":0,
			"source":10
		}
	],
	"images":[
		{
			"bufferView":4,
			"mimeType":"image/png",
			"name":"6b05d439-e215-4677-bd2f-a5653c37d820"
		},
		{
			"bufferView":5,
			"mimeType":"image/png",
			"name":"da40d7bb-6044-40d1-b279-bfc9eb866456"
		},
		{
			"bufferView":6,
			"mimeType":"image/png",
			"name":"1135ff53-457c-417c-abea-10b2d27ffbc2"
		},
		{
			"bufferView":14,
			"mimeType":"image/png",
			"name":"3daa006a-9453-4742-bac8-715cdb9302be"
		},
		{
			"bufferView":15,
			"mimeType":"image/png",
			"name":"8b64d0d4-4cc1-4cd2-ba6c-ee70f6e9dc54"
		},
		{
			"bufferView":20,
			"mimeType":"image/png",
			"name":"1a8ae28c-588a-4218-988d-37b7158b44d7"
		},
		{
			"bufferView":21,
			"mimeType":"image/png",
			"name":"ae86066d-02cb-454d-ae90-7470b7ad903c"
		},
		{
			"bufferView":22,
			"mimeType":"image/png",
			"name":"b7c8db7a-42d2-4ac3-89c2-d063dd1d6a1f"
		},
		{
			"bufferView":27,
			"mimeType":"image/png",
			"name":"ceaa9a56-dcf6-4439-81c9-f73872ff78bd"
		},
		{
			"bufferView":32,
			"mimeType":"image/png",
			"name":"2a02ba09-dd46-414a-8248-2bc9a23ac9cc"
		},
		{
			"bufferView":37,
			"mimeType":"image/png",
			"name":"aa1584a7-098b-4d3b-9082-8444ef0b440b"
		}
	],
	"accessors":[
		{
			"bufferView":0,
			"componentType":5126,
			"count":6162,
			"max":[
				0.06264621764421463,
				0.026592109352350235,
				0.0510653555393219
			],
			"min":[
				-0.05196847766637802,
				-0.023407887667417526,
				-0.03225909173488617
			],
			"type":"VEC3"
		},
		{
			"bufferView":1,
			"componentType":5126,
			"count":6162,
			"type":"VEC2"
		},
		{
			"bufferView":2,
			"componentType":5126,
			"count":6162,
			"type":"VEC3"
		},
		{
			"bufferView":3,
			"componentType":5123,
			"count":26337,
			"type":"SCALAR"
		},
		{
			"bufferView":7,
			"componentType":5126,
			"count":374,
			"max":[
				0.01418264303356409,
				0.026592109352350235,
				0.015964172780513763
			],
			"min":[
				-0.005016220733523369,
				0.026592109352350235,
				-0.003081546863541007
			],
			"type":"VEC3"
		},
		{
			"bufferView":8,
			"componentType":5126,
			"count":374,
			"type":"VEC3"
		},
		{
			"bufferView":9,
			"componentType":5123,
			"count":1098,
			"type":"SCALAR"
		},
		{
			"bufferView":10,
			"componentType":5126,
			"count":523,
			"max":[
				0.024887604638934135,
				0.028592128306627274,
				0.026570739224553108
			],
			"min":[
				-0.015603292733430862,
				0.026592109352350235,
				-0.014066668227314949
			],
			"type":"VEC3"
		},
		{
			"bufferView":11,
			"componentType":5126,
			"count":523,
			"type":"VEC2"
		},
		{
			"bufferView":12,
			"componentType":5126,
			"count":523,
			"type":"VEC3"
		},
		{
			"bufferView":13,
			"componentType":5123,
			"count":1473,
			"type":"SCALAR"
		},
		{
			"bufferView":16,
			"componentType":5126,
			"count":383,
			"max":[
				0.03531629592180252,
				0.02859210968017578,
				0.03699936717748642
			],
			"min":[
				-0.026270244270563126,
				0.02859210968017578,
				-0.0241116713732481
			],
			"type":"VEC3"
		},
		{
			"bufferView":17,
			"componentType":5126,
			"count":383,
			"type":"VEC2"
		},
		{
			"bufferView":18,
			"componentType":5126,
			"count":383,
			"type":"VEC3"
		},
		{
			"bufferView":19,
			"componentType":5123,
			"count":1125,
			"type":"SCALAR"
		},
		{
			"bufferView":23,
			"componentType":5126,
			"count":429,
			"max":[
				0.03532198816537857,
				0.028592128306627274,
				0.03700578957796097
			],
			"min":[
				-0.02627122774720192,
				0.026592109352350235,
				-0.024112297222018242
			],
			"type":"VEC3"
		},
		{
			"bufferView":24,
			"componentType":5126,
			"count":429,
			"type":"VEC2"
		},
		{
			"bufferView":25,
			"componentType":5126,
			"count":429,
			"type":"VEC3"
		},
		{
			"bufferView":26,
			"componentType":5123,
			"count":1263,
			"type":"SCALAR"
		},
		{
			"bufferView":28,
			"componentType":5126,
			"count":127,
			"max":[
				0.046766407787799835,
				0.023592110723257065,
				0.04166122153401375
			],
			"min":[
				-0.04522284120321274,
				0.02159211039543152,
				-0.02789738029241562
			],
			"type":"VEC3"
		},
		{
			"bufferView":29,
			"componentType":5126,
			"count":127,
			"type":"VEC2"
		},
		{
			"bufferView":30,
			"componentType":5126,
			"count":127,
			"type":"VEC3"
		},
		{
			"bufferView":31,
			"componentType":5123,
			"count":375,
			"type":"SCALAR"
		},
		{
			"bufferView":33,
			"componentType":5126,
			"count":347,
			"max":[
				0.04507356509566307,
				0.026592109352350235,
				0.010506365448236465
			],
			"min":[
				-0.04522284120321274,
				0.006592110730707645,
				-0.028743905946612358
			],
			"type":"VEC3"
		},
		{
			"bufferView":34,
			"componentType":5126,
			"count":347,
			"type":"VEC2"
		},
		{
			"bufferView":35,
			"componentType":5126,
			"count":347,
			"type":"VEC3"
		},
		{
			"bufferView":36,
			"componentType":5123,
			"count":999,
			"type":"SCALAR"
		}
	],
	"bufferViews":[
		{
			"buffer":0,
			"byteLength":73944,
			"byteOffset":0,
			"target":34962
		},
		{
			"buffer":0,
			"byteLength":49296,
			"byteOffset":73944,
			"target":34962
		},
		{
			"buffer":0,
			"byteLength":73944,
			"byteOffset":123240,
			"target":34962
		},
		{
			"buffer":0,
			"byteLength":52674,
			"byteOffset":197184,
			"target":34963
		},
		{
			"buffer":0,
			"byteLength":28068,
			"byteOffset":249860
		},
		{
			"buffer":0,
			"byteLength":1251925,
			"byteOffset":277928
		},
		{
			"buffer":0,
			"byteLength":522824,
			"byteOffset":1529856
		},
		{
			"buffer":0,
			"byteLength":4488,
			"byteOffset":2052680,
			"target":34962
		},
		{
			"buffer":0,
			"byteLength":4488,
			"byteOffset":2057168,
			"target":34962
		},
		{
			"buffer":0,
			"byteLength":2196,
			"byteOffset":2061656,
			"target":34963
		},
		{
			"buffer":0,
			"byteLength":6276,
			"byteOffset":2063852,
			"target":34962
		},
		{
			"buffer":0,
			"byteLength":4184,
			"byteOffset":2070128,
			"target":34962
		},
		{
			"buffer":0,
			"byteLength":6276,
			"byteOffset":2074312,
			"target":34962
		},
		{
			"buffer":0,
			"byteLength":2946,
			"byteOffset":2080588,
			"target":34963
		},
		{
			"buffer":0,
			"byteLength":28422,
			"byteOffset":2083536
		},
		{
			"buffer":0,
			"byteLength":26766,
			"byteOffset":2111960
		},
		{
			"buffer":0,
			"byteLength":4596,
			"byteOffset":2138728,
			"target":34962
		},
		{
			"buffer":0,
			"byteLength":3064,
			"byteOffset":2143324,
			"target":34962
		},
		{
			"buffer":0,
			"byteLength":4596,
			"byteOffset":2146388,
			"target":34962
		},
		{
			"buffer":0,
			"byteLength":2250,
			"byteOffset":2150984,
			"target":34963
		},
		{
			"buffer":0,
			"byteLength":2143,
			"byteOffset":2153236
		},
		{
			"buffer":0,
			"byteLength":53394,
			"byteOffset":2155380
		},
		{
			"buffer":0,
			"byteLength":23801,
			"byteOffset":2208776
		},
		{
			"buffer":0,
			"byteLength":5148,
			"byteOffset":2232580,
			"target":34962
		},
		{
			"buffer":0,
			"byteLength":3432,
			"byteOffset":2237728,
			"target":34962
		},
		{
			"buffer":0,
			"byteLength":5148,
			"byteOffset":2241160,
			"target":34962
		},
		{
			"buffer":0,
			"byteLength":2526,
			"byteOffset":2246308,
			"target":34963
		},
		{
			"buffer":0,
			"byteLength":44718,
			"byteOffset":2248836
		},
		{
			"buffer":0,
			"byteLength":1524,
			"byteOffset":2293556,
			"target":34962
		},
		{
			"buffer":0,
			"byteLength":1016,
			"byteOffset":2295080,
			"target":34962
		},
		{
			"buffer":0,
			"byteLength":1524,
			"byteOffset":2296096,
			"target":34962
		},
		{
			"buffer":0,
			"byteLength":750,
			"byteOffset":2297620,
			"target":34963
		},
		{
			"buffer":0,
			"byteLength":18533,
			"byteOffset":2298372
		},
		{
			"buffer":0,
			"byteLength":4164,
			"byteOffset":2316908,
			"target":34962
		},
		{
			"buffer":0,
			"byteLength":2776,
			"byteOffset":2321072,
			"target":34962
		},
		{
			"buffer":0,
			"byteLength":4164,
			"byteOffset":2323848,
			"target":34962
		},
		{
			"buffer":0,
			"byteLength":1998,
			"byteOffset":2328012,
			"target":34963
		},
		{
			"buffer":0,
			"byteLength":26849,
			"byteOffset":2330012
		}
	],
	"samplers":[
		{
			"magFilter":9729,
			"minFilter":9987
		}
	],
	"buffers":[
		{
			"byteLength":2356864,
			"uri":"data:application/octet-stream;base64,"
		}
	]
}
