{
	"asset":{
		"generator":"Khronos glTF Blender I/O v3.5.30",
		"version":"2.0"
	},
	"extensionsUsed":[
		"KHR_materials_clearcoat"
	],
	"scene":0,
	"scenes":[
		{
			"name":"Scene",
			"nodes":[
				7
			]
		}
	],
	"nodes":[
		{
			"mesh":0,
			"name":"mesh_0"
		},
		{
			"mesh":1,
			"name":"mesh_1"
		},
		{
			"mesh":2,
			"name":"mesh_2"
		},
		{
			"mesh":3,
			"name":"mesh_3"
		},
		{
			"mesh":4,
			"name":"mesh_4"
		},
		{
			"mesh":5,
			"name":"mesh_5"
		},
		{
			"mesh":6,
			"name":"mesh_6"
		},
		{
			"children":[
				0,
				1,
				2,
				3,
				4,
				5,
				6
			],
			"name":"root"
		}
	],
	"materials":[
		{
			"doubleSided":true,
			"extensions":{
				"KHR_materials_clearcoat":{
					"clearcoatFactor":0.14100000262260437,
					"clearcoatRoughnessFactor":0.27900001406669617
				}
			},
			"name":"material_0",
			"normalTexture":{
				"index":0
			},
			"pbrMetallicRoughness":{
				"baseColorFactor":[
					0.7835378050804138,
					0.10702203214168549,
					0.010329719632863998,
					1
				],
				"metallicFactor":0.15600000321865082,
				"metallicRoughnessTexture":{
					"index":1
				}
			}
		},
		{
			"doubleSided":true,
			"extensions":{
				"KHR_materials_clearcoat":{
					"clearcoatFactor":1,
					"clearcoatRoughnessFactor":0.03999999910593033
				}
			},
			"name":"material_1",
			"normalTexture":{
				"index":2
			},
			"pbrMetallicRoughness":{
				"baseColorFactor":[
					0.8468732237815857,
					0.8069441914558411,
					0.708368718624115,
					1
				],
				"metallicFactor":0,
				"roughnessFactor":0.6000000238418579
			}
		},
		{
			"doubleSided":true,
			"extensions":{
				"KHR_materials_clearcoat":{
					"clearcoatFactor":0.2930000126361847,
					"clearcoatRoughnessFactor":0
				}
			},
			"name":"material_2",
			"normalTexture":{
				"index":3
			},
			"pbrMetallicRoughness":{
				"baseColorTexture":{
					"index":4
				},
				"metallicFactor":0,
				"metallicRoughnessTexture":{
					"index":5
				}
			}
		},
		{
			"doubleSided":true,
			"extensions":{
				"KHR_materials_clearcoat":{
					"clearcoatFactor":0.6759999990463257,
					"clearcoatRoughnessFactor":0.32199999690055847
				}
			},
			"name":"material_3",
			"normalTexture":{
				"index":6
			},
			"pbrMetallicRoughness":{
				"baseColorFactor":[
					0.006512091029435396,
					0.006512025836855173,
					0.006512025836855173,
					1
				],
				"metallicFactor":0.8619999885559082,
				"metallicRoughnessTexture":{
					"index":7
				}
			}
		},
		{
			"doubleSided":true,
			"extensions":{
				"KHR_materials_clearcoat":{
					"clearcoatFactor":1,
					"clearcoatRoughnessFactor":1,
					"clearcoatRoughnessTexture":{
						"index":8
					}
				}
			},
			"name":"material_4",
			"pbrMetallicRoughness":{
				"baseColorFactor":[
					0.7835378050804138,
					0.02732061967253685,
					0.02732061967253685,
					1
				],
				"metallicFactor":0.1599999964237213,
				"roughnessFactor":0
			}
		},
		{
			"doubleSided":true,
			"name":"material_5",
			"normalTexture":{
				"index":9
			},
			"pbrMetallicRoughness":{
				"baseColorTexture":{
					"index":10
				},
				"metallicFactor":0.41999998688697815,
				"metallicRoughnessTexture":{
					"index":11
				}
			}
		},
		{
			"alphaMode":"BLEND",
			"doubleSided":true,
			"extensions":{
				"KHR_materials_clearcoat":{
					"clearcoatFactor":1,
					"clearcoatRoughnessFactor":0.07999999821186066
				}
			},
			"name":"material_6",
			"normalTexture":{
				"index":12
			},
			"pbrMetallicRoughness":{
				"baseColorFactor":[
					0,
					0.6239604353904724,
					0.23074007034301758,
					0.75
				],
				"metallicFactor":0,
				"roughnessFactor":0.019999999552965164
			}
		}
	],
	"meshes":[
		{
			"name":"mesh_0",
			"primitives":[
				{
					"attributes":{
						"POSITION":0,
						"TEXCOORD_0":1,
						"NORMAL":2
					},
					"indices":3,
					"material":0
				}
			]
		},
		{
			"name":"mesh_1",
			"primitives":[
				{
					"attributes":{
						"POSITION":4,
						"TEXCOORD_0":5,
						"NORMAL":6
					},
					"indices":7,
					"material":1
				}
			]
		},
		{
			"name":"mesh_2",
			"primitives":[
				{
					"attributes":{
						"POSITION":8,
						"TEXCOORD_0":9,
						"NORMAL":10
					},
					"indices":11,
					"material":2
				}
			]
		},
		{
			"name":"mesh_3",
			"primitives":[
				{
					"attributes":{
						"POSITION":12,
						"TEXCOORD_0":13,
						"NORMAL":14
					},
					"indices":15,
					"material":3
				}
			]
		},
		{
			"name":"mesh_4",
			"primitives":[
				{
					"attributes":{
						"POSITION":16,
						"TEXCOORD_0":17,
						"NORMAL":18
					},
					"indices":19,
					"material":4
				}
			]
		},
		{
			"name":"mesh_5",
			"primitives":[
				{
					"attributes":{
						"POSITION":20,
						"TEXCOORD_0":21,
						"NORMAL":22
					},
					"indices":23,
					"material":5
				}
			]
		},
		{
			"name":"mesh_6",
			"primitives":[
				{
					"attributes":{
						"POSITION":24,
						"TEXCOORD_0":25,
						"NORMAL":26
					},
					"indices":27,
					"material":6
				}
			]
		}
	],
	"textures":[
		{
			"sampler":0,
			"source":0
		},
		{
			"sampler":0,
			"source":1
		},
		{
			"sampler":0,
			"source":2
		},
		{
			"sampler":0,
			"source":3
		},
		{
			"sampler":0,
			"source":4
		},
		{
			"sampler":0,
			"source":5
		},
		{
			"sampler":0,
			"source":6
		},
		{
			"sampler":0,
			"source":7
		},
		{
			"sampler":0,
			"source":8
		},
		{
			"sampler":0,
			"source":9
		},
		{
			"sampler":0,
			"source":10
		},
		{
			"sampler":0,
			"source":11
		},
		{
			"sampler":0,
			"source":12
		}
	],
	"images":[
		{
			"bufferView":4,
			"mimeType":"image/png",
			"name":"98953e42-76f5-4651-975f-89d39eb25a39"
		},
		{
			"bufferView":5,
			"mimeType":"image/png",
			"name":"e9870892-4003-4b86-a8c8-48a14fee5082"
		},
		{
			"bufferView":10,
			"mimeType":"image/png",
			"name":"f72a1ab1-9814-4316-9944-c13b692cc1d5"
		},
		{
			"bufferView":15,
			"mimeType":"image/png",
			"name":"5039585c-580e-451c-971d-efdd9ded241f"
		},
		{
			"bufferView":16,
			"mimeType":"image/png",
			"name":"c87c5916-9f9c-4434-99d1-c1b5b59c10fb"
		},
		{
			"bufferView":17,
			"mimeType":"image/png",
			"name":"79a075ed-8d7d-4088-9432-f117811031a7"
		},
		{
			"bufferView":22,
			"mimeType":"image/png",
			"name":"3a49f197-1bda-4e24-8522-6bbe6f1bb34f"
		},
		{
			"bufferView":23,
			"mimeType":"image/png",
			"name":"be50c5f8-daf0-4d90-ad68-3e3f43679ec7"
		},
		{
			"bufferView":28,
			"mimeType":"image/png",
			"name":"b168d63b-1079-4898-ba68-59ac49b096ba"
		},
		{
			"bufferView":33,
			"mimeType":"image/png",
			"name":"39668873-bc25-4572-8fe2-b6fcdbfd5522"
		},
		{
			"bufferView":34,
			"mimeType":"image/png",
			"name":"942df933-0b95-4855-b02b-3869817061a6"
		},
		{
			"bufferView":35,
			"mimeType":"image/png",
			"name":"8114715b-1ca4-4a65-8ea7-9e95db6f70b8"
		},
		{
			"bufferView":40,
			"mimeType":"image/png",
			"name":"1cb149df-5fbd-4669-9a7a-9fe6df194709"
		}
	],
	"accessors":[
		{
			"bufferView":0,
			"componentType":5126,
			"count":6171,
			"max":[
				0.05908749997615814,
				-0.0379028357565403,
				0.03885954990983009
			],
			"min":[
				-0.02575586922466755,
				-0.05046607553958893,
				-0.05000407621264458
			],
			"type":"VEC3"
		},
		{
			"bufferView":1,
			"componentType":5126,
			"count":6171,
			"type":"VEC2"
		},
		{
			"bufferView":2,
			"componentType":5126,
			"count":6171,
			"type":"VEC3"
		},
		{
			"bufferView":3,
			"componentType":5123,
			"count":32010,
			"type":"SCALAR"
		},
		{
			"bufferView":6,
			"componentType":5126,
			"count":7852,
			"max":[
				0.07310953736305237,
				0.05576619133353233,
				0.0545186772942543
			],
			"min":[
				0.0067413486540317535,
				0.03158693015575409,
				-0.007653834298253059
			],
			"type":"VEC3"
		},
		{
			"bufferView":7,
			"componentType":5126,
			"count":7852,
			"type":"VEC2"
		},
		{
			"bufferView":8,
			"componentType":5126,
			"count":7852,
			"type":"VEC3"
		},
		{
			"bufferView":9,
			"componentType":5123,
			"count":41226,
			"type":"SCALAR"
		},
		{
			"bufferView":11,
			"componentType":5126,
			"count":113,
			"max":[
				0.06799331307411194,
				0.047326862812042236,
				0.04941456764936447
			],
			"min":[
				0.018017491325736046,
				0.04201459884643555,
				0.003794558346271515
			],
			"type":"VEC3"
		},
		{
			"bufferView":12,
			"componentType":5126,
			"count":113,
			"type":"VEC2"
		},
		{
			"bufferView":13,
			"componentType":5126,
			"count":113,
			"type":"VEC3"
		},
		{
			"bufferView":14,
			"componentType":5123,
			"count":330,
			"type":"SCALAR"
		},
		{
			"bufferView":18,
			"componentType":5126,
			"count":276,
			"max":[
				0.07202231138944626,
				0.04977048188447952,
				0.053349532186985016
			],
			"min":[
				0.016036048531532288,
				0.038465194404125214,
				0.0020819325000047684
			],
			"type":"VEC3"
		},
		{
			"bufferView":19,
			"componentType":5126,
			"count":276,
			"type":"VEC2"
		},
		{
			"bufferView":20,
			"componentType":5126,
			"count":276,
			"type":"VEC3"
		},
		{
			"bufferView":21,
			"componentType":5123,
			"count":792,
			"type":"SCALAR"
		},
		{
			"bufferView":24,
			"componentType":5126,
			"count":4856,
			"max":[
				0.07448326051235199,
				0.06798987835645676,
				0.05461689829826355
			],
			"min":[
				-0.05064791068434715,
				-0.0013336949050426483,
				-0.07039932906627655
			],
			"type":"VEC3"
		},
		{
			"bufferView":25,
			"componentType":5126,
			"count":4856,
			"type":"VEC2"
		},
		{
			"bufferView":26,
			"componentType":5126,
			"count":4856,
			"type":"VEC3"
		},
		{
			"bufferView":27,
			"componentType":5123,
			"count":19416,
			"type":"SCALAR"
		},
		{
			"bufferView":29,
			"componentType":5126,
			"count":201,
			"max":[
				0.05837571248412132,
				0.06798975169658661,
				0.036557383835315704
			],
			"min":[
				-0.03352084383368492,
				0.06469947844743729,
				-0.05531458556652069
			],
			"type":"VEC3"
		},
		{
			"bufferView":30,
			"componentType":5126,
			"count":201,
			"type":"VEC2"
		},
		{
			"bufferView":31,
			"componentType":5126,
			"count":201,
			"type":"VEC3"
		},
		{
			"bufferView":32,
			"componentType":5123,
			"count":603,
			"type":"SCALAR"
		},
		{
			"bufferView":36,
			"componentType":5126,
			"count":7559,
			"max":[
				0.07448159158229828,
				0.08071618527173996,
				0.05462728813290596
			],
			"min":[
				-0.0562264658510685,
				-0.050003521144390106,
				-0.07606475055217743
			],
			"type":"VEC3"
		},
		{
			"bufferView":37,
			"componentType":5126,
			"count":7559,
			"type":"VEC2"
		},
		{
			"bufferView":38,
			"componentType":5126,
			"count":7559,
			"type":"VEC3"
		},
		{
			"bufferView":39,
			"componentType":5123,
			"count":37647,
			"type":"SCALAR"
		}
	],
	"bufferViews":[
		{
			"buffer":0,
			"byteLength":74052,
			"byteOffset":0,
			"target":34962
		},
		{
			"buffer":0,
			"byteLength":49368,
			"byteOffset":74052,
			"target":34962
		},
		{
			"buffer":0,
			"byteLength":74052,
			"byteOffset":123420,
			"target":34962
		},
		{
			"buffer":0,
			"byteLength":64020,
			"byteOffset":197472,
			"target":34963
		},
		{
			"buffer":0,
			"byteLength":107913,
			"byteOffset":261492
		},
		{
			"buffer":0,
			"byteLength":54794,
			"byteOffset":369408
		},
		{
			"buffer":0,
			"byteLength":94224,
			"byteOffset":424204,
			"target":34962
		},
		{
			"buffer":0,
			"byteLength":62816,
			"byteOffset":518428,
			"target":34962
		},
		{
			"buffer":0,
			"byteLength":94224,
			"byteOffset":581244,
			"target":34962
		},
		{
			"buffer":0,
			"byteLength":82452,
			"byteOffset":675468,
			"target":34963
		},
		{
			"buffer":0,
			"byteLength":24281,
			"byteOffset":757920
		},
		{
			"buffer":0,
			"byteLength":1356,
			"byteOffset":782204,
			"target":34962
		},
		{
			"buffer":0,
			"byteLength":904,
			"byteOffset":783560,
			"target":34962
		},
		{
			"buffer":0,
			"byteLength":1356,
			"byteOffset":784464,
			"target":34962
		},
		{
			"buffer":0,
			"byteLength":660,
			"byteOffset":785820,
			"target":34963
		},
		{
			"buffer":0,
			"byteLength":551,
			"byteOffset":786480
		},
		{
			"buffer":0,
			"byteLength":1114,
			"byteOffset":787032
		},
		{
			"buffer":0,
			"byteLength":1954,
			"byteOffset":788148
		},
		{
			"buffer":0,
			"byteLength":3312,
			"byteOffset":790104,
			"target":34962
		},
		{
			"buffer":0,
			"byteLength":2208,
			"byteOffset":793416,
			"target":34962
		},
		{
			"buffer":0,
			"byteLength":3312,
			"byteOffset":795624,
			"target":34962
		},
		{
			"buffer":0,
			"byteLength":1584,
			"byteOffset":798936,
			"target":34963
		},
		{
			"buffer":0,
			"byteLength":7226,
			"byteOffset":800520
		},
		{
			"buffer":0,
			"byteLength":5415,
			"byteOffset":807748
		},
		{
			"buffer":0,
			"byteLength":58272,
			"byteOffset":813164,
			"target":34962
		},
		{
			"buffer":0,
			"byteLength":38848,
			"byteOffset":871436,
			"target":34962
		},
		{
			"buffer":0,
			"byteLength":58272,
			"byteOffset":910284,
			"target":34962
		},
		{
			"buffer":0,
			"byteLength":38832,
			"byteOffset":968556,
			"target":34963
		},
		{
			"buffer":0,
			"byteLength":108479,
			"byteOffset":1007388
		},
		{
			"buffer":0,
			"byteLength":2412,
			"byteOffset":1115868,
			"target":34962
		},
		{
			"buffer":0,
			"byteLength":1608,
			"byteOffset":1118280,
			"target":34962
		},
		{
			"buffer":0,
			"byteLength":2412,
			"byteOffset":1119888,
			"target":34962
		},
		{
			"buffer":0,
			"byteLength":1206,
			"byteOffset":1122300,
			"target":34963
		},
		{
			"buffer":0,
			"byteLength":94203,
			"byteOffset":1123508
		},
		{
			"buffer":0,
			"byteLength":46181,
			"byteOffset":1217712
		},
		{
			"buffer":0,
			"byteLength":91972,
			"byteOffset":1263896
		},
		{
			"buffer":0,
			"byteLength":90708,
			"byteOffset":1355868,
			"target":34962
		},
		{
			"buffer":0,
			"byteLength":60472,
			"byteOffset":1446576,
			"target":34962
		},
		{
			"buffer":0,
			"byteLength":90708,
			"byteOffset":1507048,
			"target":34962
		},
		{
			"buffer":0,
			"byteLength":75294,
			"byteOffset":1597756,
			"target":34963
		},
		{
			"buffer":0,
			"byteLength":292129,
			"byteOffset":1673052
		}
	],
	"samplers":[
		{
			"magFilter":9729,
			"minFilter":9987
		}
	],
	"buffers":[
		{
			"byteLength":1965184,
			"uri":"data:application/octet-stream;base64,"
		}
	]
}
